<?xml version="1.0" standalone="no"?>
<!DOCTYPE svg PUBLIC "-//W3C//DTD SVG 20010904//EN"
 "http://www.w3.org/TR/2001/REC-SVG-20010904/DTD/svg10.dtd">
<svg version="1.0" xmlns="http://www.w3.org/2000/svg"
 width="369.000000pt" height="369.000000pt" viewBox="0 0 369.000000 369.000000"
 preserveAspectRatio="xMidYMid meet">
<metadata>
Created by potrace 1.14, written by Peter Selinger 2001-2017
</metadata>
<g transform="translate(0.000000,369.000000) scale(0.100000,-0.100000)"
fill="#000000" stroke="none">
<path d="M1610 3674 c-127 -17 -136 -18 -240 -49 -3 -1 -23 -5 -44 -10 -58
-12 -249 -90 -344 -140 -227 -121 -410 -274 -591 -495 -11 -14 -25 -30 -31
-37 -5 -7 -10 -15 -10 -18 0 -4 -6 -13 -12 -20 -27 -30 -38 -44 -38 -49 0 -3
-15 -29 -33 -58 -19 -29 -40 -68 -48 -85 -8 -18 -17 -33 -21 -33 -5 0 -8 -5
-8 -11 0 -5 -9 -29 -19 -52 -36 -80 -82 -201 -97 -256 -32 -119 -41 -159 -60
-281 -10 -65 -12 -354 -3 -425 16 -126 20 -149 40 -235 11 -47 22 -92 24 -100
7 -31 66 -184 99 -254 39 -85 116 -220 128 -224 4 -2 8 -8 8 -13 0 -36 206
-274 324 -374 26 -22 52 -45 59 -51 32 -28 156 -114 165 -114 6 0 12 -3 14 -7
4 -10 54 -41 91 -56 15 -6 27 -15 27 -19 0 -4 5 -8 11 -8 6 0 39 -13 73 -29
59 -27 90 -40 111 -47 6 -2 47 -17 93 -33 46 -16 102 -33 125 -37 23 -4 44 -8
47 -9 3 -1 19 -4 35 -8 99 -24 191 -32 365 -31 187 0 238 5 399 41 193 42 437
143 580 238 24 17 51 35 60 40 96 60 254 201 346 309 22 26 45 52 51 59 27 31
114 158 114 167 0 6 3 10 8 10 4 0 18 21 31 48 14 26 30 54 37 62 7 8 12 17
12 20 0 3 13 34 30 70 29 63 44 100 46 110 1 3 4 10 7 15 8 12 48 134 53 161
3 10 11 48 20 84 33 144 41 221 40 410 0 91 -4 190 -8 220 -11 85 -46 251 -57
272 -5 10 -7 18 -5 18 3 0 -10 44 -29 98 -60 164 -162 358 -257 485 -89 120
-249 284 -344 353 -14 10 -45 33 -68 50 -56 42 -238 150 -248 147 -4 -2 -8 2
-8 9 0 6 -3 9 -6 5 -4 -3 -26 5 -50 18 -24 14 -44 22 -44 19 0 -4 -6 -1 -14 5
-8 7 -22 14 -32 16 -11 2 -49 16 -86 29 -37 14 -78 28 -90 30 -13 3 -33 7 -45
10 -13 4 -32 8 -44 11 -11 2 -28 6 -37 9 -9 3 -37 7 -62 10 -25 3 -56 9 -70
12 -52 12 -377 11 -470 -2z"/>
</g>
</svg>
